<mxfile host="Electron" agent="Mozilla/5.0 (Windows NT 10.0; Win64; x64) AppleWebKit/537.36 (KHTML, like Gecko) draw.io/28.0.4 Chrome/138.0.7204.97 Electron/37.2.1 Safari/537.36" version="28.0.4">
  <diagram name="Page-1" id="bUz4eAPlwWGXgjBSlPdP">
    <mxGraphModel dx="1783" dy="1061" grid="1" gridSize="10" guides="1" tooltips="1" connect="1" arrows="1" fold="1" page="1" pageScale="1" pageWidth="850" pageHeight="1100" math="0" shadow="0">
      <root>
        <mxCell id="0" />
        <mxCell id="1" parent="0" />
        <mxCell id="3DVFQUMLizagt8y-HNvG-50" value="SCASB[ASCII]" style="group;movable=1;resizable=1;rotatable=1;deletable=1;editable=1;locked=0;connectable=1;" vertex="1" connectable="0" parent="1">
          <mxGeometry x="590" y="60" width="480" height="600" as="geometry" />
        </mxCell>
        <mxCell id="3DVFQUMLizagt8y-HNvG-27" value="" style="edgeStyle=orthogonalEdgeStyle;rounded=0;orthogonalLoop=1;jettySize=auto;html=1;movable=1;resizable=1;rotatable=1;deletable=1;editable=1;locked=0;connectable=1;" edge="1" parent="3DVFQUMLizagt8y-HNvG-50" source="3DVFQUMLizagt8y-HNvG-23">
          <mxGeometry relative="1" as="geometry">
            <mxPoint x="80" y="130" as="targetPoint" />
          </mxGeometry>
        </mxCell>
        <mxCell id="3DVFQUMLizagt8y-HNvG-23" value="SCASB[ASCII]" style="strokeWidth=2;html=1;shape=mxgraph.flowchart.start_1;whiteSpace=wrap;movable=1;resizable=1;rotatable=1;deletable=1;editable=1;locked=0;connectable=1;" vertex="1" parent="3DVFQUMLizagt8y-HNvG-50">
          <mxGeometry x="30" y="10" width="100" height="60" as="geometry" />
        </mxCell>
        <mxCell id="3DVFQUMLizagt8y-HNvG-30" value="" style="edgeStyle=orthogonalEdgeStyle;rounded=0;orthogonalLoop=1;jettySize=auto;html=1;movable=1;resizable=1;rotatable=1;deletable=1;editable=1;locked=0;connectable=1;" edge="1" parent="3DVFQUMLizagt8y-HNvG-50" source="3DVFQUMLizagt8y-HNvG-29">
          <mxGeometry relative="1" as="geometry">
            <mxPoint x="80" y="250" as="targetPoint" />
          </mxGeometry>
        </mxCell>
        <mxCell id="3DVFQUMLizagt8y-HNvG-29" value="&lt;font style=&quot;font-size: 9px;&quot;&gt;PUSHA&lt;/font&gt;" style="strokeWidth=2;html=1;shape=mxgraph.flowchart.merge_or_storage;whiteSpace=wrap;movable=1;resizable=1;rotatable=1;deletable=1;editable=1;locked=0;connectable=1;" vertex="1" parent="3DVFQUMLizagt8y-HNvG-50">
          <mxGeometry x="32.5" y="130" width="95" height="60" as="geometry" />
        </mxCell>
        <mxCell id="3DVFQUMLizagt8y-HNvG-34" value="" style="edgeStyle=orthogonalEdgeStyle;rounded=0;orthogonalLoop=1;jettySize=auto;html=1;movable=1;resizable=1;rotatable=1;deletable=1;editable=1;locked=0;connectable=1;" edge="1" parent="3DVFQUMLizagt8y-HNvG-50" source="3DVFQUMLizagt8y-HNvG-31" target="3DVFQUMLizagt8y-HNvG-33">
          <mxGeometry relative="1" as="geometry" />
        </mxCell>
        <mxCell id="3DVFQUMLizagt8y-HNvG-37" value="" style="edgeStyle=orthogonalEdgeStyle;rounded=0;orthogonalLoop=1;jettySize=auto;html=1;fontSize=16;movable=1;resizable=1;rotatable=1;deletable=1;editable=1;locked=0;connectable=1;" edge="1" parent="3DVFQUMLizagt8y-HNvG-50" source="3DVFQUMLizagt8y-HNvG-31" target="3DVFQUMLizagt8y-HNvG-36">
          <mxGeometry relative="1" as="geometry" />
        </mxCell>
        <mxCell id="3DVFQUMLizagt8y-HNvG-42" value="PASS" style="edgeLabel;html=1;align=center;verticalAlign=middle;resizable=1;points=[];movable=1;rotatable=1;deletable=1;editable=1;locked=0;connectable=1;" vertex="1" connectable="0" parent="3DVFQUMLizagt8y-HNvG-37">
          <mxGeometry x="-0.4125" relative="1" as="geometry">
            <mxPoint x="11" as="offset" />
          </mxGeometry>
        </mxCell>
        <mxCell id="3DVFQUMLizagt8y-HNvG-31" value="&lt;div style=&quot;line-height: 100%;&quot;&gt;&lt;font style=&quot;font-size: 10px; line-height: 100%;&quot;&gt;SCASB&lt;/font&gt;&lt;span style=&quot;font-size: 10px; background-color: transparent; color: light-dark(rgb(0, 0, 0), rgb(255, 255, 255));&quot;&gt;[&#39;0&#39;; &#39;A&#39;]&lt;/span&gt;&lt;div&gt;&lt;font style=&quot;font-size: 10px; line-height: 100%;&quot;&gt;(Method:&amp;nbsp;≥)&lt;/font&gt;&lt;/div&gt;&lt;/div&gt;" style="strokeWidth=2;html=1;shape=mxgraph.flowchart.decision;whiteSpace=wrap;movable=1;resizable=1;rotatable=1;deletable=1;editable=1;locked=0;connectable=1;" vertex="1" parent="3DVFQUMLizagt8y-HNvG-50">
          <mxGeometry x="170" y="250" width="100" height="100" as="geometry" />
        </mxCell>
        <mxCell id="3DVFQUMLizagt8y-HNvG-33" value="FAIL! [0x0F]" style="strokeWidth=2;html=1;shape=mxgraph.flowchart.terminator;whiteSpace=wrap;movable=1;resizable=1;rotatable=1;deletable=1;editable=1;locked=0;connectable=1;" vertex="1" parent="3DVFQUMLizagt8y-HNvG-50">
          <mxGeometry x="250" y="110" width="100" height="60" as="geometry" />
        </mxCell>
        <mxCell id="3DVFQUMLizagt8y-HNvG-36" value="&lt;div style=&quot;line-height: 100%;&quot;&gt;&lt;font style=&quot;font-size: 10px; line-height: 100%;&quot;&gt;SCASB&lt;/font&gt;&lt;span style=&quot;font-size: 10px; background-color: transparent; color: light-dark(rgb(0, 0, 0), rgb(255, 255, 255));&quot;&gt;[&#39;0&#39;; &#39;F&#39;]&lt;/span&gt;&lt;/div&gt;&lt;div style=&quot;line-height: 100%;&quot;&gt;&lt;span style=&quot;font-size: 10px; background-color: transparent; color: light-dark(rgb(0, 0, 0), rgb(255, 255, 255));&quot;&gt;(Method:&amp;nbsp;&lt;/span&gt;&lt;span style=&quot;background-color: transparent; font-size: 10px;&quot;&gt;≤)&lt;/span&gt;&lt;/div&gt;" style="strokeWidth=2;html=1;shape=mxgraph.flowchart.decision;whiteSpace=wrap;movable=1;resizable=1;rotatable=1;deletable=1;editable=1;locked=0;connectable=1;" vertex="1" parent="3DVFQUMLizagt8y-HNvG-50">
          <mxGeometry x="335" y="250" width="100" height="100" as="geometry" />
        </mxCell>
        <mxCell id="3DVFQUMLizagt8y-HNvG-40" style="edgeStyle=orthogonalEdgeStyle;rounded=0;orthogonalLoop=1;jettySize=auto;html=1;entryX=0.5;entryY=1;entryDx=0;entryDy=0;entryPerimeter=0;movable=1;resizable=1;rotatable=1;deletable=1;editable=1;locked=0;connectable=1;" edge="1" parent="3DVFQUMLizagt8y-HNvG-50" source="3DVFQUMLizagt8y-HNvG-36" target="3DVFQUMLizagt8y-HNvG-33">
          <mxGeometry relative="1" as="geometry" />
        </mxCell>
        <mxCell id="3DVFQUMLizagt8y-HNvG-41" value="FAIL" style="edgeLabel;html=1;align=center;verticalAlign=middle;resizable=1;points=[];movable=1;rotatable=1;deletable=1;editable=1;locked=0;connectable=1;" vertex="1" connectable="0" parent="3DVFQUMLizagt8y-HNvG-40">
          <mxGeometry x="0.6271" relative="1" as="geometry">
            <mxPoint y="-1" as="offset" />
          </mxGeometry>
        </mxCell>
        <mxCell id="3DVFQUMLizagt8y-HNvG-44" value="" style="edgeStyle=orthogonalEdgeStyle;rounded=0;orthogonalLoop=1;jettySize=auto;html=1;movable=1;resizable=1;rotatable=1;deletable=1;editable=1;locked=0;connectable=1;" edge="1" parent="3DVFQUMLizagt8y-HNvG-50" source="3DVFQUMLizagt8y-HNvG-43" target="3DVFQUMLizagt8y-HNvG-31">
          <mxGeometry relative="1" as="geometry" />
        </mxCell>
        <mxCell id="3DVFQUMLizagt8y-HNvG-46" value="" style="edgeStyle=orthogonalEdgeStyle;rounded=0;orthogonalLoop=1;jettySize=auto;html=1;movable=1;resizable=1;rotatable=1;deletable=1;editable=1;locked=0;connectable=1;" edge="1" parent="3DVFQUMLizagt8y-HNvG-50" source="3DVFQUMLizagt8y-HNvG-43" target="3DVFQUMLizagt8y-HNvG-45">
          <mxGeometry relative="1" as="geometry" />
        </mxCell>
        <mxCell id="3DVFQUMLizagt8y-HNvG-43" value="COMPARE" style="rounded=1;whiteSpace=wrap;html=1;absoluteArcSize=1;arcSize=14;strokeWidth=2;movable=1;resizable=1;rotatable=1;deletable=1;editable=1;locked=0;connectable=1;" vertex="1" parent="3DVFQUMLizagt8y-HNvG-50">
          <mxGeometry x="30" y="250" width="100" height="100" as="geometry" />
        </mxCell>
        <mxCell id="3DVFQUMLizagt8y-HNvG-48" value="" style="edgeStyle=orthogonalEdgeStyle;rounded=0;orthogonalLoop=1;jettySize=auto;html=1;movable=1;resizable=1;rotatable=1;deletable=1;editable=1;locked=0;connectable=1;" edge="1" parent="3DVFQUMLizagt8y-HNvG-50" source="3DVFQUMLizagt8y-HNvG-45" target="3DVFQUMLizagt8y-HNvG-47">
          <mxGeometry relative="1" as="geometry" />
        </mxCell>
        <mxCell id="3DVFQUMLizagt8y-HNvG-45" value="&lt;font style=&quot;font-size: 10px;&quot;&gt;POPA&lt;/font&gt;" style="strokeWidth=2;html=1;shape=mxgraph.flowchart.merge_or_storage;whiteSpace=wrap;movable=1;resizable=1;rotatable=1;deletable=1;editable=1;locked=0;connectable=1;" vertex="1" parent="3DVFQUMLizagt8y-HNvG-50">
          <mxGeometry x="32.5" y="410" width="95" height="60" as="geometry" />
        </mxCell>
        <mxCell id="3DVFQUMLizagt8y-HNvG-47" value="RETURN" style="strokeWidth=2;html=1;shape=mxgraph.flowchart.terminator;whiteSpace=wrap;movable=1;resizable=1;rotatable=1;deletable=1;editable=1;locked=0;connectable=1;" vertex="1" parent="3DVFQUMLizagt8y-HNvG-50">
          <mxGeometry x="30" y="530" width="100" height="60" as="geometry" />
        </mxCell>
        <mxCell id="3DVFQUMLizagt8y-HNvG-49" value="" style="swimlane;startSize=0;movable=0;resizable=0;rotatable=0;deletable=0;editable=0;locked=1;connectable=0;" vertex="1" parent="3DVFQUMLizagt8y-HNvG-50">
          <mxGeometry width="480" height="600" as="geometry">
            <mxRectangle width="50" height="40" as="alternateBounds" />
          </mxGeometry>
        </mxCell>
        <mxCell id="3DVFQUMLizagt8y-HNvG-75" value="" style="group" vertex="1" connectable="0" parent="1">
          <mxGeometry x="30" y="420" width="530" height="490" as="geometry" />
        </mxCell>
        <mxCell id="3DVFQUMLizagt8y-HNvG-5" value="" style="edgeStyle=orthogonalEdgeStyle;rounded=0;orthogonalLoop=1;jettySize=auto;html=1;" edge="1" parent="3DVFQUMLizagt8y-HNvG-75" source="3DVFQUMLizagt8y-HNvG-2" target="3DVFQUMLizagt8y-HNvG-3">
          <mxGeometry relative="1" as="geometry" />
        </mxCell>
        <mxCell id="3DVFQUMLizagt8y-HNvG-2" value="START" style="strokeWidth=2;html=1;shape=mxgraph.flowchart.start_1;whiteSpace=wrap;" vertex="1" parent="3DVFQUMLizagt8y-HNvG-75">
          <mxGeometry x="80" y="110" width="100" height="60" as="geometry" />
        </mxCell>
        <mxCell id="3DVFQUMLizagt8y-HNvG-11" value="" style="edgeStyle=orthogonalEdgeStyle;rounded=0;orthogonalLoop=1;jettySize=auto;html=1;" edge="1" parent="3DVFQUMLizagt8y-HNvG-75" source="3DVFQUMLizagt8y-HNvG-3">
          <mxGeometry relative="1" as="geometry">
            <mxPoint x="240" y="280" as="targetPoint" />
          </mxGeometry>
        </mxCell>
        <mxCell id="3DVFQUMLizagt8y-HNvG-3" value="PASSCHECK[1]" style="rounded=1;whiteSpace=wrap;html=1;absoluteArcSize=1;arcSize=14;strokeWidth=2;" vertex="1" parent="3DVFQUMLizagt8y-HNvG-75">
          <mxGeometry x="80" y="230" width="100" height="100" as="geometry" />
        </mxCell>
        <mxCell id="3DVFQUMLizagt8y-HNvG-7" value="&lt;h1 style=&quot;margin-top: 0px;&quot;&gt;Pass-Check 1&lt;/h1&gt;&lt;div style=&quot;text-align: center;&quot;&gt;This checks if the data stream that will be converted IS valid.&lt;/div&gt;&lt;div&gt;&lt;br&gt;&lt;/div&gt;&lt;div style=&quot;text-align: center;&quot;&gt;(0xA↔0xF, 0x0↔0x9)&lt;/div&gt;&lt;div style=&quot;text-align: center;&quot;&gt;(&#39;A&#39;↔&#39;F&#39;, &#39;0&#39;↔&#39;9&#39;)&lt;/div&gt;" style="text;html=1;whiteSpace=wrap;overflow=hidden;rounded=0;glass=0;strokeColor=default;" vertex="1" parent="3DVFQUMLizagt8y-HNvG-75">
          <mxGeometry x="210" y="30" width="180" height="140" as="geometry" />
        </mxCell>
        <mxCell id="3DVFQUMLizagt8y-HNvG-8" value="It throws an error IF it did not pass.&lt;div&gt;[0x0F]&lt;/div&gt;" style="text;html=1;align=center;verticalAlign=middle;whiteSpace=wrap;rounded=0;strokeColor=default;" vertex="1" parent="3DVFQUMLizagt8y-HNvG-75">
          <mxGeometry x="390" y="60" width="120" height="100" as="geometry" />
        </mxCell>
        <mxCell id="3DVFQUMLizagt8y-HNvG-13" value="&lt;font style=&quot;font-size: 10px;&quot;&gt;SCASB[ASCII]&lt;/font&gt;" style="strokeWidth=2;html=1;shape=mxgraph.flowchart.decision;whiteSpace=wrap;" vertex="1" parent="3DVFQUMLizagt8y-HNvG-75">
          <mxGeometry x="240" y="230" width="100" height="100" as="geometry" />
        </mxCell>
        <mxCell id="3DVFQUMLizagt8y-HNvG-19" style="edgeStyle=orthogonalEdgeStyle;rounded=0;orthogonalLoop=1;jettySize=auto;html=1;" edge="1" parent="3DVFQUMLizagt8y-HNvG-75" source="3DVFQUMLizagt8y-HNvG-14">
          <mxGeometry relative="1" as="geometry">
            <mxPoint x="370" y="370" as="targetPoint" />
            <Array as="points">
              <mxPoint x="450" y="350" />
              <mxPoint x="370" y="350" />
            </Array>
          </mxGeometry>
        </mxCell>
        <mxCell id="3DVFQUMLizagt8y-HNvG-14" value="&lt;font style=&quot;font-size: 10px;&quot;&gt;SCASB[HEX]&lt;/font&gt;" style="strokeWidth=2;html=1;shape=mxgraph.flowchart.decision;whiteSpace=wrap;" vertex="1" parent="3DVFQUMLizagt8y-HNvG-75">
          <mxGeometry x="400" y="230" width="100" height="100" as="geometry" />
        </mxCell>
        <mxCell id="3DVFQUMLizagt8y-HNvG-17" value="FAIL" style="strokeWidth=2;html=1;shape=mxgraph.flowchart.terminator;whiteSpace=wrap;" vertex="1" parent="3DVFQUMLizagt8y-HNvG-75">
          <mxGeometry x="320" y="370" width="100" height="60" as="geometry" />
        </mxCell>
        <mxCell id="3DVFQUMLizagt8y-HNvG-18" style="edgeStyle=orthogonalEdgeStyle;rounded=0;orthogonalLoop=1;jettySize=auto;html=1;entryX=0.5;entryY=0;entryDx=0;entryDy=0;entryPerimeter=0;" edge="1" parent="3DVFQUMLizagt8y-HNvG-75" source="3DVFQUMLizagt8y-HNvG-13" target="3DVFQUMLizagt8y-HNvG-17">
          <mxGeometry relative="1" as="geometry" />
        </mxCell>
        <mxCell id="3DVFQUMLizagt8y-HNvG-21" value="JMP to OPTION" style="verticalLabelPosition=bottom;verticalAlign=top;html=1;strokeWidth=2;shape=mxgraph.arrows2.arrow;dy=0.6;dx=40;notch=0;flipH=1;" vertex="1" parent="3DVFQUMLizagt8y-HNvG-75">
          <mxGeometry x="10" y="365" width="100" height="70" as="geometry" />
        </mxCell>
        <mxCell id="3DVFQUMLizagt8y-HNvG-22" style="edgeStyle=orthogonalEdgeStyle;rounded=0;orthogonalLoop=1;jettySize=auto;html=1;entryX=0;entryY=0.5;entryDx=0;entryDy=0;entryPerimeter=0;" edge="1" parent="3DVFQUMLizagt8y-HNvG-75" source="3DVFQUMLizagt8y-HNvG-3" target="3DVFQUMLizagt8y-HNvG-21">
          <mxGeometry relative="1" as="geometry" />
        </mxCell>
        <mxCell id="3DVFQUMLizagt8y-HNvG-51" style="edgeStyle=orthogonalEdgeStyle;rounded=0;orthogonalLoop=1;jettySize=auto;html=1;entryX=0.5;entryY=0;entryDx=0;entryDy=0;entryPerimeter=0;" edge="1" parent="3DVFQUMLizagt8y-HNvG-75" source="3DVFQUMLizagt8y-HNvG-13" target="3DVFQUMLizagt8y-HNvG-14">
          <mxGeometry relative="1" as="geometry">
            <Array as="points">
              <mxPoint x="290" y="210" />
              <mxPoint x="450" y="210" />
            </Array>
          </mxGeometry>
        </mxCell>
        <mxCell id="3DVFQUMLizagt8y-HNvG-53" value="SKIP IF HxNT" style="edgeLabel;html=1;align=center;verticalAlign=middle;resizable=0;points=[];" vertex="1" connectable="0" parent="3DVFQUMLizagt8y-HNvG-51">
          <mxGeometry x="-0.2043" y="-1" relative="1" as="geometry">
            <mxPoint x="20" as="offset" />
          </mxGeometry>
        </mxCell>
        <mxCell id="3DVFQUMLizagt8y-HNvG-74" value="" style="swimlane;startSize=0;" vertex="1" parent="3DVFQUMLizagt8y-HNvG-75">
          <mxGeometry width="530" height="490" as="geometry" />
        </mxCell>
        <mxCell id="3DVFQUMLizagt8y-HNvG-76" value="SCASB[HEX]" style="group" vertex="1" connectable="0" parent="1">
          <mxGeometry x="590" y="710" width="480" height="600" as="geometry" />
        </mxCell>
        <mxCell id="3DVFQUMLizagt8y-HNvG-55" value="" style="edgeStyle=orthogonalEdgeStyle;rounded=0;orthogonalLoop=1;jettySize=auto;html=1;movable=1;resizable=1;rotatable=1;deletable=1;editable=1;locked=0;connectable=1;" edge="1" parent="3DVFQUMLizagt8y-HNvG-76" source="3DVFQUMLizagt8y-HNvG-56">
          <mxGeometry relative="1" as="geometry">
            <mxPoint x="80" y="130" as="targetPoint" />
          </mxGeometry>
        </mxCell>
        <mxCell id="3DVFQUMLizagt8y-HNvG-56" value="SCASB[HEX]" style="strokeWidth=2;html=1;shape=mxgraph.flowchart.start_1;whiteSpace=wrap;movable=1;resizable=1;rotatable=1;deletable=1;editable=1;locked=0;connectable=1;" vertex="1" parent="3DVFQUMLizagt8y-HNvG-76">
          <mxGeometry x="30" y="10" width="100" height="60" as="geometry" />
        </mxCell>
        <mxCell id="3DVFQUMLizagt8y-HNvG-57" value="" style="edgeStyle=orthogonalEdgeStyle;rounded=0;orthogonalLoop=1;jettySize=auto;html=1;movable=1;resizable=1;rotatable=1;deletable=1;editable=1;locked=0;connectable=1;" edge="1" parent="3DVFQUMLizagt8y-HNvG-76" source="3DVFQUMLizagt8y-HNvG-58">
          <mxGeometry relative="1" as="geometry">
            <mxPoint x="80" y="250" as="targetPoint" />
          </mxGeometry>
        </mxCell>
        <mxCell id="3DVFQUMLizagt8y-HNvG-58" value="&lt;font style=&quot;font-size: 9px;&quot;&gt;PUSHA&lt;/font&gt;" style="strokeWidth=2;html=1;shape=mxgraph.flowchart.merge_or_storage;whiteSpace=wrap;movable=1;resizable=1;rotatable=1;deletable=1;editable=1;locked=0;connectable=1;" vertex="1" parent="3DVFQUMLizagt8y-HNvG-76">
          <mxGeometry x="32.5" y="130" width="95" height="60" as="geometry" />
        </mxCell>
        <mxCell id="3DVFQUMLizagt8y-HNvG-59" value="" style="edgeStyle=orthogonalEdgeStyle;rounded=0;orthogonalLoop=1;jettySize=auto;html=1;movable=1;resizable=1;rotatable=1;deletable=1;editable=1;locked=0;connectable=1;" edge="1" parent="3DVFQUMLizagt8y-HNvG-76" source="3DVFQUMLizagt8y-HNvG-62" target="3DVFQUMLizagt8y-HNvG-63">
          <mxGeometry relative="1" as="geometry" />
        </mxCell>
        <mxCell id="3DVFQUMLizagt8y-HNvG-60" value="" style="edgeStyle=orthogonalEdgeStyle;rounded=0;orthogonalLoop=1;jettySize=auto;html=1;fontSize=16;movable=1;resizable=1;rotatable=1;deletable=1;editable=1;locked=0;connectable=1;" edge="1" parent="3DVFQUMLizagt8y-HNvG-76" source="3DVFQUMLizagt8y-HNvG-62" target="3DVFQUMLizagt8y-HNvG-64">
          <mxGeometry relative="1" as="geometry" />
        </mxCell>
        <mxCell id="3DVFQUMLizagt8y-HNvG-61" value="PASS" style="edgeLabel;html=1;align=center;verticalAlign=middle;resizable=1;points=[];movable=1;rotatable=1;deletable=1;editable=1;locked=0;connectable=1;" vertex="1" connectable="0" parent="3DVFQUMLizagt8y-HNvG-60">
          <mxGeometry x="-0.4125" relative="1" as="geometry">
            <mxPoint x="11" as="offset" />
          </mxGeometry>
        </mxCell>
        <mxCell id="3DVFQUMLizagt8y-HNvG-62" value="&lt;div style=&quot;line-height: 100%;&quot;&gt;&lt;font style=&quot;font-size: 10px; line-height: 100%;&quot;&gt;SCASB&lt;/font&gt;&lt;span style=&quot;font-size: 10px; background-color: transparent; color: light-dark(rgb(0, 0, 0), rgb(255, 255, 255));&quot;&gt;[0x0; 0xA]&lt;/span&gt;&lt;div&gt;&lt;font style=&quot;font-size: 10px; line-height: 100%;&quot;&gt;(Method:&amp;nbsp;≥)&lt;/font&gt;&lt;/div&gt;&lt;/div&gt;" style="strokeWidth=2;html=1;shape=mxgraph.flowchart.decision;whiteSpace=wrap;movable=1;resizable=1;rotatable=1;deletable=1;editable=1;locked=0;connectable=1;" vertex="1" parent="3DVFQUMLizagt8y-HNvG-76">
          <mxGeometry x="170" y="250" width="100" height="100" as="geometry" />
        </mxCell>
        <mxCell id="3DVFQUMLizagt8y-HNvG-63" value="FAIL! [0x0F]" style="strokeWidth=2;html=1;shape=mxgraph.flowchart.terminator;whiteSpace=wrap;movable=1;resizable=1;rotatable=1;deletable=1;editable=1;locked=0;connectable=1;" vertex="1" parent="3DVFQUMLizagt8y-HNvG-76">
          <mxGeometry x="250" y="110" width="100" height="60" as="geometry" />
        </mxCell>
        <mxCell id="3DVFQUMLizagt8y-HNvG-64" value="&lt;div style=&quot;line-height: 100%;&quot;&gt;&lt;font style=&quot;font-size: 10px; line-height: 100%;&quot;&gt;SCASB&lt;/font&gt;&lt;span style=&quot;font-size: 10px; background-color: transparent; color: light-dark(rgb(0, 0, 0), rgb(255, 255, 255));&quot;&gt;[0x9; 0xF]&lt;/span&gt;&lt;/div&gt;&lt;div style=&quot;line-height: 100%;&quot;&gt;&lt;span style=&quot;font-size: 10px; background-color: transparent; color: light-dark(rgb(0, 0, 0), rgb(255, 255, 255));&quot;&gt;(Method:&amp;nbsp;&lt;/span&gt;&lt;span style=&quot;background-color: transparent; font-size: 10px;&quot;&gt;≤)&lt;/span&gt;&lt;/div&gt;" style="strokeWidth=2;html=1;shape=mxgraph.flowchart.decision;whiteSpace=wrap;movable=1;resizable=1;rotatable=1;deletable=1;editable=1;locked=0;connectable=1;" vertex="1" parent="3DVFQUMLizagt8y-HNvG-76">
          <mxGeometry x="335" y="250" width="100" height="100" as="geometry" />
        </mxCell>
        <mxCell id="3DVFQUMLizagt8y-HNvG-65" style="edgeStyle=orthogonalEdgeStyle;rounded=0;orthogonalLoop=1;jettySize=auto;html=1;entryX=0.5;entryY=1;entryDx=0;entryDy=0;entryPerimeter=0;movable=1;resizable=1;rotatable=1;deletable=1;editable=1;locked=0;connectable=1;" edge="1" parent="3DVFQUMLizagt8y-HNvG-76" source="3DVFQUMLizagt8y-HNvG-64" target="3DVFQUMLizagt8y-HNvG-63">
          <mxGeometry relative="1" as="geometry" />
        </mxCell>
        <mxCell id="3DVFQUMLizagt8y-HNvG-66" value="FAIL" style="edgeLabel;html=1;align=center;verticalAlign=middle;resizable=1;points=[];movable=1;rotatable=1;deletable=1;editable=1;locked=0;connectable=1;" vertex="1" connectable="0" parent="3DVFQUMLizagt8y-HNvG-65">
          <mxGeometry x="0.6271" relative="1" as="geometry">
            <mxPoint y="-1" as="offset" />
          </mxGeometry>
        </mxCell>
        <mxCell id="3DVFQUMLizagt8y-HNvG-67" value="" style="edgeStyle=orthogonalEdgeStyle;rounded=0;orthogonalLoop=1;jettySize=auto;html=1;movable=1;resizable=1;rotatable=1;deletable=1;editable=1;locked=0;connectable=1;" edge="1" parent="3DVFQUMLizagt8y-HNvG-76" source="3DVFQUMLizagt8y-HNvG-69" target="3DVFQUMLizagt8y-HNvG-62">
          <mxGeometry relative="1" as="geometry" />
        </mxCell>
        <mxCell id="3DVFQUMLizagt8y-HNvG-68" value="" style="edgeStyle=orthogonalEdgeStyle;rounded=0;orthogonalLoop=1;jettySize=auto;html=1;movable=1;resizable=1;rotatable=1;deletable=1;editable=1;locked=0;connectable=1;" edge="1" parent="3DVFQUMLizagt8y-HNvG-76" source="3DVFQUMLizagt8y-HNvG-69" target="3DVFQUMLizagt8y-HNvG-71">
          <mxGeometry relative="1" as="geometry" />
        </mxCell>
        <mxCell id="3DVFQUMLizagt8y-HNvG-69" value="COMPARE" style="rounded=1;whiteSpace=wrap;html=1;absoluteArcSize=1;arcSize=14;strokeWidth=2;movable=1;resizable=1;rotatable=1;deletable=1;editable=1;locked=0;connectable=1;" vertex="1" parent="3DVFQUMLizagt8y-HNvG-76">
          <mxGeometry x="30" y="250" width="100" height="100" as="geometry" />
        </mxCell>
        <mxCell id="3DVFQUMLizagt8y-HNvG-70" value="" style="edgeStyle=orthogonalEdgeStyle;rounded=0;orthogonalLoop=1;jettySize=auto;html=1;movable=1;resizable=1;rotatable=1;deletable=1;editable=1;locked=0;connectable=1;" edge="1" parent="3DVFQUMLizagt8y-HNvG-76" source="3DVFQUMLizagt8y-HNvG-71" target="3DVFQUMLizagt8y-HNvG-72">
          <mxGeometry relative="1" as="geometry" />
        </mxCell>
        <mxCell id="3DVFQUMLizagt8y-HNvG-71" value="&lt;font style=&quot;font-size: 10px;&quot;&gt;POPA&lt;/font&gt;" style="strokeWidth=2;html=1;shape=mxgraph.flowchart.merge_or_storage;whiteSpace=wrap;movable=1;resizable=1;rotatable=1;deletable=1;editable=1;locked=0;connectable=1;" vertex="1" parent="3DVFQUMLizagt8y-HNvG-76">
          <mxGeometry x="32.5" y="410" width="95" height="60" as="geometry" />
        </mxCell>
        <mxCell id="3DVFQUMLizagt8y-HNvG-72" value="RETURN" style="strokeWidth=2;html=1;shape=mxgraph.flowchart.terminator;whiteSpace=wrap;movable=1;resizable=1;rotatable=1;deletable=1;editable=1;locked=0;connectable=1;" vertex="1" parent="3DVFQUMLizagt8y-HNvG-76">
          <mxGeometry x="30" y="530" width="100" height="60" as="geometry" />
        </mxCell>
        <mxCell id="3DVFQUMLizagt8y-HNvG-73" value="" style="swimlane;startSize=0;movable=0;resizable=0;rotatable=0;deletable=0;editable=0;locked=1;connectable=0;" vertex="1" parent="3DVFQUMLizagt8y-HNvG-76">
          <mxGeometry width="480" height="600" as="geometry">
            <mxRectangle width="50" height="40" as="alternateBounds" />
          </mxGeometry>
        </mxCell>
      </root>
    </mxGraphModel>
  </diagram>
</mxfile>
